ply                 
format ascii 1.0    
element vertex 52
property float x    
property float y    
property float z    
element edge 39
property int vertex1
property int vertex2
property uchar red  
property uchar green
property uchar blue 
end_header          
0.276194 0.750902 0.645295
0.340387 0.802405 0.463013
0.429946 0.624323 0.663676
0.165562 0.604871 0.565073
0.983322 0.412424 -1.60843
1.18202 0.404584 -1.58705
0.989563 0.611756 -1.59334
0.961417 0.398098 -1.41015
1142.87 368.55 -549.909
1142.71 368.432 -549.923
1142.75 368.71 -549.945
1142.9 368.529 -550.106
19.1707 5.91318 -13.5745
19.3653 5.87027 -13.5585
19.2109 6.10679 -13.5445
19.1487 5.88723 -13.3774
0.988514 0.465659 -1.58881
1.18632 0.441324 -1.57202
1.01007 0.662104 -1.55808
0.968277 0.437072 -1.3919
-10.6528 -5.17177 4.40074
-10.4573 -5.15405 4.43876
-10.6617 -4.97709 4.35579
-10.6938 -5.12951 4.59188
0 0 0
0 0 0
0 0 0
0 0 0
7.09956 2.10494 -2.43583
6.91409 2.04011 -2.47323
7.0262 2.28223 -2.37937
7.11441 2.17102 -2.62401
0 0 0
0 0 0
0 0 0
0 0 0
-380750 -104082 178564
-380750 -104082 178563
-380750 -104082 178563
-380751 -104082 178563
0 0 0
0 0 0
0 0 0
0 0 0
-8314.77 -11305.9 16050.6
-8314.67 -11306.1 16050.7
-8314.94 -11306 16050.6
-8314.73 -11306 16050.4
0 0 0
0 0 0
0 0 0
0 0 0
0 1 255 0 0
0 2 0 255 0
0 3 0 0 255
4 5 255 0 0
4 6 0 255 0
4 7 0 0 255
8 9 255 0 0
8 10 0 255 0
8 11 0 0 255
12 13 255 0 0
12 14 0 255 0
12 15 0 0 255
16 17 255 0 0
16 18 0 255 0
16 19 0 0 255
20 21 255 0 0
20 22 0 255 0
20 23 0 0 255
24 25 255 0 0
24 26 0 255 0
24 27 0 0 255
28 29 255 0 0
28 30 0 255 0
28 31 0 0 255
32 33 255 0 0
32 34 0 255 0
32 35 0 0 255
36 37 255 0 0
36 38 0 255 0
36 39 0 0 255
40 41 255 0 0
40 42 0 255 0
40 43 0 0 255
44 45 255 0 0
44 46 0 255 0
44 47 0 0 255
48 49 255 0 0
48 50 0 255 0
48 51 0 0 255
